<?xml version="1.0" encoding="UTF-8" standalone="no"?>
<svg
   xmlns:dc="http://purl.org/dc/elements/1.1/"
   xmlns:cc="http://creativecommons.org/ns#"
   xmlns:rdf="http://www.w3.org/1999/02/22-rdf-syntax-ns#"
   xmlns:svg="http://www.w3.org/2000/svg"
   xmlns="http://www.w3.org/2000/svg"
   xmlns:sodipodi="http://sodipodi.sourceforge.net/DTD/sodipodi-0.dtd"
   xmlns:inkscape="http://www.inkscape.org/namespaces/inkscape"
   width="49.583378mm"
   height="8.7177868mm"
   viewBox="0 0 49.583378 8.7177868"
   version="1.1"
   id="svg8"
   inkscape:export-filename="E:\Users\felip\Desktop\logo.png"
   inkscape:export-xdpi="96"
   inkscape:export-ydpi="96"
   sodipodi:docname="logo.svg"
   inkscape:version="1.0.1 (3bc2e813f5, 2020-09-07)">
  <defs
     id="defs2" />
  <sodipodi:namedview
     id="base"
     pagecolor="#ffffff"
     bordercolor="#666666"
     borderopacity="1.0"
     inkscape:pageopacity="0.0"
     inkscape:pageshadow="2"
     inkscape:zoom="3.959798"
     inkscape:cx="109.02513"
     inkscape:cy="23.554289"
     inkscape:document-units="mm"
     inkscape:current-layer="layer1"
     inkscape:document-rotation="0"
     showgrid="false"
     inkscape:window-width="1920"
     inkscape:window-height="1017"
     inkscape:window-x="1912"
     inkscape:window-y="-8"
     inkscape:window-maximized="1" />
  <metadata
     id="metadata5">
    <rdf:RDF>
      <cc:Work
         rdf:about="">
        <dc:format>image/svg+xml</dc:format>
        <dc:type
           rdf:resource="http://purl.org/dc/dcmitype/StillImage" />
      </cc:Work>
    </rdf:RDF>
  </metadata>
  <g
     inkscape:label="Layer 1"
     inkscape:groupmode="layer"
     id="layer1"
     transform="translate(-54.490585,-81.416249)">
    <g
       aria-label="TreinaCook"
       id="text835"
       style="font-style:normal;font-weight:normal;font-size:10.5833px;line-height:6.61458px;font-family:sans-serif;letter-spacing:0px;word-spacing:0px;fill:#ffffff;fill-opacity:1;stroke:none;stroke-width:0.264583">
      <path
         d="m 59.244802,81.591948 v 1.674311 h -1.291907 v 6.692077 h -2.175571 v -6.692077 h -1.286739 v -1.674311 z"
         style="font-style:normal;font-variant:normal;font-weight:normal;font-stretch:normal;font-size:10.5833px;font-family:Impact;-inkscape-font-specification:'Impact, Normal';font-variant-ligatures:normal;font-variant-caps:normal;font-variant-numeric:normal;font-variant-east-asian:normal;fill:#ffffff;fill-opacity:1;stroke-width:0.264583"
         id="path879" />
      <path
         d="m 61.766604,83.100895 -0.08268,0.899167 q 0.454751,-0.966346 1.317744,-1.02319 v 2.413282 q -0.573606,0 -0.842323,0.155029 -0.268716,0.155028 -0.330728,0.43408 -0.06201,0.273884 -0.06201,1.271236 v 2.707837 h -2.087722 v -6.857441 z"
         style="font-style:normal;font-variant:normal;font-weight:normal;font-stretch:normal;font-size:10.5833px;font-family:Impact;-inkscape-font-specification:'Impact, Normal';font-variant-ligatures:normal;font-variant-caps:normal;font-variant-numeric:normal;font-variant-east-asian:normal;fill:#ffffff;fill-opacity:1;stroke-width:0.264583"
         id="path881" />
      <path
         d="m 68.195131,86.651055 h -2.702669 v 1.483109 q 0,0.465086 0.06718,0.599444 0.06718,0.134359 0.258381,0.134359 0.237711,0 0.315225,-0.1757 0.08268,-0.180867 0.08268,-0.692462 v -0.904334 h 1.979201 v 0.506427 q 0,0.635618 -0.08268,0.976682 -0.07751,0.341063 -0.372069,0.728635 -0.294555,0.387572 -0.749306,0.583942 -0.449583,0.191202 -1.13171,0.191202 -0.661456,0 -1.167884,-0.191202 -0.506427,-0.191202 -0.790647,-0.521931 -0.279051,-0.335895 -0.387572,-0.733803 -0.10852,-0.403074 -0.10852,-1.167883 v -1.999872 q 0,-0.899167 0.242879,-1.41593 0.242878,-0.52193 0.795814,-0.795814 0.552936,-0.279052 1.271236,-0.279052 0.878497,0 1.446936,0.335896 0.573606,0.330728 0.800982,0.883664 0.232543,0.547768 0.232543,1.54512 z m -2.092889,-1.116208 v -0.501259 q 0,-0.532266 -0.05684,-0.687295 -0.05684,-0.155029 -0.232544,-0.155029 -0.21704,0 -0.268716,0.134359 -0.05168,0.12919 -0.05168,0.707965 v 0.501259 z"
         style="font-style:normal;font-variant:normal;font-weight:normal;font-stretch:normal;font-size:10.5833px;font-family:Impact;-inkscape-font-specification:'Impact, Normal';font-variant-ligatures:normal;font-variant-caps:normal;font-variant-numeric:normal;font-variant-east-asian:normal;fill:#ffffff;fill-opacity:1;stroke-width:0.264583"
         id="path883" />
      <path
         d="m 71.026991,81.591948 v 1.090369 h -2.149733 v -1.090369 z m 0,1.508947 v 6.857441 h -2.149733 v -6.857441 z"
         style="font-style:normal;font-variant:normal;font-weight:normal;font-stretch:normal;font-size:10.5833px;font-family:Impact;-inkscape-font-specification:'Impact, Normal';font-variant-ligatures:normal;font-variant-caps:normal;font-variant-numeric:normal;font-variant-east-asian:normal;fill:#ffffff;fill-opacity:1;stroke-width:0.264583"
         id="path885" />
      <path
         d="m 73.900192,83.100895 -0.03617,0.630451 q 0.227375,-0.377237 0.552936,-0.563272 0.330728,-0.191202 0.759641,-0.191202 0.537433,0 0.878496,0.253214 0.341064,0.253214 0.439249,0.640786 0.09818,0.382404 0.09818,1.281571 v 4.805893 h -2.087721 v -4.749049 q 0,-0.707965 -0.04651,-0.862994 -0.04651,-0.155029 -0.258382,-0.155029 -0.222208,0 -0.279052,0.180867 -0.05684,0.1757 -0.05684,0.950844 v 4.635361 h -2.087722 v -6.857441 z"
         style="font-style:normal;font-variant:normal;font-weight:normal;font-stretch:normal;font-size:10.5833px;font-family:Impact;-inkscape-font-specification:'Impact, Normal';font-variant-ligatures:normal;font-variant-caps:normal;font-variant-numeric:normal;font-variant-east-asian:normal;fill:#ffffff;fill-opacity:1;stroke-width:0.264583"
         id="path887" />
      <path
         d="m 79.176337,85.757055 h -1.95853 v -0.459918 q 0,-0.795815 0.180867,-1.224728 0.186034,-0.434081 0.73897,-0.764809 0.552937,-0.330728 1.436601,-0.330728 1.059363,0 1.596796,0.377237 0.537434,0.372069 0.645954,0.919837 0.10852,0.542601 0.10852,2.24275 v 3.44164 h -2.030877 v -0.60978 q -0.191203,0.366901 -0.496093,0.552936 -0.299722,0.180867 -0.7183,0.180867 -0.547768,0 -1.007687,-0.30489 -0.454751,-0.310058 -0.454751,-1.348751 v -0.563271 q 0,-0.769976 0.242878,-1.049028 0.242879,-0.279052 1.204057,-0.651121 1.028358,-0.403075 1.100705,-0.542601 0.07235,-0.139526 0.07235,-0.568439 0,-0.537433 -0.08268,-0.69763 -0.07751,-0.165364 -0.263549,-0.165364 -0.211873,0 -0.263549,0.139526 -0.05168,0.134359 -0.05168,0.707965 z m 0.661457,0.940508 q -0.50126,0.366902 -0.583942,0.614948 -0.07751,0.248046 -0.07751,0.713132 0,0.532266 0.06718,0.687295 0.07235,0.155029 0.279051,0.155029 0.19637,0 0.253214,-0.118856 0.06201,-0.124023 0.06201,-0.640786 z"
         style="font-style:normal;font-variant:normal;font-weight:normal;font-stretch:normal;font-size:10.5833px;font-family:Impact;-inkscape-font-specification:'Impact, Normal';font-variant-ligatures:normal;font-variant-caps:normal;font-variant-numeric:normal;font-variant-east-asian:normal;fill:#ffffff;fill-opacity:1;stroke-width:0.264583"
         id="path889" />
      <path
         d="m 87.785603,85.240293 h -2.17557 v -1.457271 q 0,-0.635618 -0.07235,-0.790647 -0.06718,-0.160196 -0.30489,-0.160196 -0.268717,0 -0.341064,0.191202 -0.07235,0.191202 -0.07235,0.82682 v 3.886055 q 0,0.60978 0.07235,0.795815 0.07235,0.186034 0.325561,0.186034 0.242878,0 0.315225,-0.186034 0.07752,-0.186035 0.07752,-0.873329 v -1.049028 h 2.17557 v 0.32556 q 0,1.297075 -0.186034,1.839675 -0.180867,0.542601 -0.811318,0.950844 -0.625282,0.408242 -1.54512,0.408242 -0.956011,0 -1.576126,-0.346231 -0.620115,-0.346231 -0.821653,-0.956011 -0.201537,-0.614947 -0.201537,-1.844843 v -2.444287 q 0,-0.904335 0.06201,-1.353918 0.06201,-0.454751 0.366902,-0.873329 0.310057,-0.418578 0.852658,-0.656289 0.547769,-0.242878 1.255734,-0.242878 0.961178,0 1.586461,0.372069 0.625283,0.372069 0.821653,0.930173 0.196369,0.552936 0.196369,1.725987 z"
         style="font-style:normal;font-variant:normal;font-weight:normal;font-stretch:normal;font-size:10.5833px;font-family:Impact;-inkscape-font-specification:'Impact, Normal';font-variant-ligatures:normal;font-variant-caps:normal;font-variant-numeric:normal;font-variant-east-asian:normal;fill:#ffffff;fill-opacity:1;stroke-width:0.264583"
         id="path891" />
      <path
         d="m 93.227116,85.509009 v 1.679479 q 0,0.925005 -0.09302,1.359086 -0.09302,0.428913 -0.397908,0.80615 -0.30489,0.372069 -0.785479,0.552936 -0.475422,0.175699 -1.095537,0.175699 -0.692462,0 -1.173051,-0.149861 -0.480589,-0.155029 -0.749306,-0.459919 -0.263549,-0.310058 -0.377237,-0.744138 -0.113687,-0.439249 -0.113687,-1.312577 V 85.65887 q 0,-0.956011 0.206705,-1.493444 0.206705,-0.537433 0.744138,-0.862993 0.537433,-0.325561 1.374589,-0.325561 0.702797,0 1.204057,0.211873 0.506427,0.206705 0.780311,0.542601 0.273884,0.335895 0.372069,0.692462 0.103353,0.356566 0.103353,1.085201 z m -2.087721,-0.516762 q 0,-0.527098 -0.05684,-0.661457 -0.05684,-0.139526 -0.242879,-0.139526 -0.186034,0 -0.248046,0.139526 -0.06201,0.134359 -0.06201,0.661457 v 3.095408 q 0,0.485757 0.06201,0.635618 0.06201,0.144694 0.242879,0.144694 0.186034,0 0.242878,-0.134359 0.06201,-0.134358 0.06201,-0.578774 z"
         style="font-style:normal;font-variant:normal;font-weight:normal;font-stretch:normal;font-size:10.5833px;font-family:Impact;-inkscape-font-specification:'Impact, Normal';font-variant-ligatures:normal;font-variant-caps:normal;font-variant-numeric:normal;font-variant-east-asian:normal;fill:#ffffff;fill-opacity:1;stroke-width:0.264583"
         id="path893" />
      <path
         d="m 98.637619,85.509009 v 1.679479 q 0,0.925005 -0.09302,1.359086 -0.09302,0.428913 -0.397907,0.80615 -0.30489,0.372069 -0.785479,0.552936 -0.475422,0.175699 -1.095537,0.175699 -0.692462,0 -1.173052,-0.149861 -0.480589,-0.155029 -0.749306,-0.459919 -0.263548,-0.310058 -0.377236,-0.744138 -0.113688,-0.439249 -0.113688,-1.312577 V 85.65887 q 0,-0.956011 0.206705,-1.493444 0.206705,-0.537433 0.744138,-0.862993 0.537433,-0.325561 1.374589,-0.325561 0.702797,0 1.204057,0.211873 0.506427,0.206705 0.780312,0.542601 0.273884,0.335895 0.372069,0.692462 0.103352,0.356566 0.103352,1.085201 z m -2.087721,-0.516762 q 0,-0.527098 -0.05684,-0.661457 -0.05684,-0.139526 -0.242878,-0.139526 -0.186035,0 -0.248046,0.139526 -0.06201,0.134359 -0.06201,0.661457 v 3.095408 q 0,0.485757 0.06201,0.635618 0.06201,0.144694 0.242878,0.144694 0.186035,0 0.242879,-0.134359 0.06201,-0.134358 0.06201,-0.578774 z"
         style="font-style:normal;font-variant:normal;font-weight:normal;font-stretch:normal;font-size:10.5833px;font-family:Impact;-inkscape-font-specification:'Impact, Normal';font-variant-ligatures:normal;font-variant-caps:normal;font-variant-numeric:normal;font-variant-east-asian:normal;fill:#ffffff;fill-opacity:1;stroke-width:0.264583"
         id="path895" />
      <path
         d="m 103.82075,83.100895 -0.84749,2.733675 1.1007,4.123766 h -2.0102 l -0.65112,-2.986888 v 2.986888 h -2.087724 v -8.366388 h 2.087724 v 3.513986 l 0.65112,-2.005039 z"
         style="font-style:normal;font-variant:normal;font-weight:normal;font-stretch:normal;font-size:10.5833px;font-family:Impact;-inkscape-font-specification:'Impact, Normal';font-variant-ligatures:normal;font-variant-caps:normal;font-variant-numeric:normal;font-variant-east-asian:normal;fill:#ffffff;fill-opacity:1;stroke-width:0.264583"
         id="path897" />
    </g>
  </g>
</svg>
